<?xml version="1.0" encoding="UTF-8"?>
<svg version="1.1" xmlns="http://www.w3.org/2000/svg" width="2000" height="1500">
<path d="M0 0 C14.19 0 28.38 0 43 0 C43.33 168.3 43.66 336.6 44 510 C46.31 507.36 48.62 504.72 51 502 C52.8743113 500.06228168 54.76922014 498.14420103 56.6875 496.25 C57.19369873 495.74758789 57.69989746 495.24517578 58.22143555 494.72753906 C60.34459649 492.6204205 62.47380842 490.51945787 64.60253906 488.41796875 C69.9764018 483.10670773 75.26767712 477.79874521 80.17578125 472.046875 C84.68424616 466.98812636 89.63271431 462.31989091 94.45703125 457.56347656 C101.15581399 450.98020429 101.15581399 450.98020429 107.46875 444.03125 C112.62067744 438.00840149 118.39182133 432.55310573 124.02978516 426.99072266 C129.25675956 421.82751231 134.38221491 416.6545954 139.15820312 411.06445312 C143.67501287 406.00160275 148.62659758 401.32592155 153.45703125 396.56347656 C160.15581399 389.98020429 160.15581399 389.98020429 166.46875 383.03125 C171.62067744 377.00840149 177.39182133 371.55310573 183.02978516 365.99072266 C184.5324377 364.50640103 186.03188165 363.01888796 187.53125 361.53125 C188.41361328 360.66048828 189.29597656 359.78972656 190.20507812 358.89257812 C194.88239964 354.13915448 199.18356388 349.10564131 203.18164062 343.77148438 C208.60204473 336.9931089 213.59226055 331.95121442 222.44921875 330.6171875 C229.80939867 330.01653384 237.12904024 330.23915662 244.5 330.5 C247.07674174 330.53209984 249.65358529 330.55689791 252.23046875 330.57421875 C258.49064053 330.63199862 264.74354421 330.77979188 271 331 C270.15403821 335.31397842 268.22191823 336.99573352 265 340 C264.04861236 340.93879592 263.10095953 341.88138917 262.15673828 342.82739258 C261.65917023 343.32173294 261.16160217 343.8160733 260.6489563 344.32539368 C258.39704929 346.56374023 256.14795619 348.80490615 253.89892578 351.04614258 C252.72079179 352.21925013 251.54176152 353.39145828 250.36181641 354.56274414 C244.6737506 360.21030571 239.0471504 365.82668556 233.84716797 371.93237305 C228.96822358 377.3936181 223.60764165 382.43852561 218.39746094 387.58203125 C211.28643669 394.54641496 211.28643669 394.54641496 204.59375 401.90625 C198.73446592 408.7728202 192.09299848 414.9587328 185.67919922 421.30029297 C177.00097592 429.88141125 177.00097592 429.88141125 168.83398438 438.94335938 C163.96415392 444.40441525 158.60320902 449.44290152 153.39746094 454.58203125 C148.02795578 459.88898545 142.74113658 465.19242618 137.83740234 470.93994141 C133.71588906 475.56089929 129.22014961 479.84093645 124.8125 484.1875 C122.857695 486.115505 120.90638463 488.04695367 118.95703125 489.98046875 C118.10085205 490.82504639 117.24467285 491.66962402 116.36254883 492.53979492 C113.93741037 494.97922731 113.93741037 494.97922731 111.81518555 497.8137207 C111.21617432 498.53519287 110.61716309 499.25666504 110 500 C109.34 500 108.68 500 108 500 C107.79632812 500.53109375 107.59265625 501.0621875 107.3828125 501.609375 C105.40494391 505.02874104 102.69673101 507.51337921 99.875 510.25 C99.31167969 510.80429687 98.74835938 511.35859375 98.16796875 511.9296875 C96.78313972 513.29104485 95.39216796 514.64614859 94 516 C97.87249696 520.63599988 101.89179276 525.02724639 106.18896484 529.27075195 C106.77505524 529.85377579 107.36114563 530.43679962 107.96499634 531.03749084 C109.22427911 532.28967651 110.48468984 533.5407287 111.74613571 534.79073524 C113.74048234 536.76756662 115.7311567 538.74802941 117.72085571 540.72953796 C123.37360664 546.35792867 129.03211034 551.9805106 134.69482422 557.59887695 C138.16832321 561.04567576 141.63700245 564.49726346 145.10271072 567.95189476 C146.4237895 569.26675173 147.74676434 570.57970643 149.0716362 571.89074135 C150.91474894 573.71475121 152.75172388 575.54473372 154.58740234 577.3762207 C155.41482941 578.19050537 155.41482941 578.19050537 156.25897217 579.02124023 C160 582.77210109 160 582.77210109 160 585 C160.556875 585.20625 161.11375 585.4125 161.6875 585.625 C164.22812201 587.13564012 165.76507497 588.93858175 167.55859375 591.26953125 C169.55337659 593.66435184 171.7907942 595.8053375 174 598 C175.20197339 599.20118403 176.40351731 600.4027979 177.60473633 601.60473633 C178.27751617 602.27751617 178.95029602 602.95029602 179.64346313 603.64346313 C250.39526367 674.39526367 250.39526367 674.39526367 252.28134155 676.28219604 C253.36549462 677.36581008 254.45066383 678.44840931 255.53726196 679.52957153 C258.3137012 682.29371537 260.8742737 685.1440115 263.375 688.15625 C265.4805555 690.54524566 267.74296337 692.7536021 270 695 C271.55594821 696.56050802 273.11151935 698.12139209 274.66674805 699.68261719 C279.07880683 704.11060344 283.49301315 708.5364374 287.90884686 712.96065903 C290.57311906 715.63017629 293.23643554 718.30063361 295.89770508 720.97314453 C298.481873 723.56815261 301.0684543 726.16073212 303.65674782 728.75162506 C304.64123416 729.73796001 305.62483947 730.72517515 306.60754967 731.71327972 C307.97652621 733.08948393 309.34889901 734.46230721 310.72143555 735.83496094 C311.89128242 737.00813873 311.89128242 737.00813873 313.08476257 738.20501709 C314.88062464 740.05919962 314.88062464 740.05919962 317 741 C317 741.99 317 742.98 317 744 C309.09809304 744.10132712 301.19635328 744.17143514 293.29394531 744.21972656 C290.60495534 744.237599 287.91634174 744.26544475 285.22753906 744.30175781 C281.36512439 744.35021615 277.50328792 744.37295626 273.640625 744.390625 C272.4363385 744.41127014 271.232052 744.43191528 269.99127197 744.45318604 C268.30998199 744.45363922 268.30998199 744.45363922 266.59472656 744.45410156 C265.60877502 744.46298401 264.62282349 744.47186646 263.60699463 744.48101807 C260.27182028 743.86564314 259.07042865 742.63032266 257 740 C257 739.34 257 738.68 257 738 C256.443125 737.79375 255.88625 737.5875 255.3125 737.375 C252.71322843 735.82948717 251.15432578 733.93135442 249.28515625 731.58203125 C246.7131438 728.4158761 243.86400399 725.65937147 240.625 723.1875 C238.44278675 721.36898896 236.83151589 719.70273953 235.01847839 717.55192566 C230.29767493 712.1064507 225.18521942 707.06093428 220.0793457 701.98168945 C218.99099732 700.89526402 217.90287918 699.80860789 216.81497192 698.72174072 C214.48655141 696.39646237 212.15659143 694.07274199 209.82540321 691.75023842 C206.13702565 688.07546206 202.45253595 684.39680382 198.76860046 680.71757507 C190.952869 672.91290654 183.13290073 665.11248943 175.3125 657.3125 C166.85765421 648.87970015 158.40355402 640.4461606 149.95431966 632.00773782 C146.29389118 628.35228263 142.63104069 624.69927731 138.9662987 621.04814684 C136.68760492 618.77692224 134.41099369 616.50361888 132.13493729 614.22975159 C131.08127314 613.1779561 130.02674655 612.12702376 128.97128487 611.07703209 C127.52783567 609.64082767 126.08778942 608.20120558 124.64790344 606.76142883 C123.84213017 605.95787618 123.03635691 605.15432352 122.20616627 604.32642078 C119.98472018 601.9838873 117.99669819 599.53480984 116 597 C113.48813108 594.35592746 110.96816151 591.97439078 108.125 589.6875 C105.74324446 587.74317897 103.77396015 585.66203248 101.78491211 583.31835938 C98.1340167 579.10065966 94.27488146 575.14644811 90.31640625 571.21875 C89.26585304 570.17031921 89.26585304 570.17031921 88.19407654 569.10070801 C85.98591542 566.89808461 83.77427963 564.69898919 81.5625 562.5 C80.05250186 560.99502492 78.5427341 559.48981865 77.03320312 557.984375 C73.35812359 554.32024171 69.67992644 550.6592652 66 547 C64.88352344 547.95111541 63.76788101 548.90321003 62.65258789 549.85571289 C62.03122452 550.3858046 61.40986115 550.9158963 60.76966858 551.46205139 C58.57165572 553.37225698 56.49264224 555.37478817 54.4375 557.4375 C53.73496094 558.13746094 53.03242187 558.83742188 52.30859375 559.55859375 C51.54675781 560.36425781 50.78492188 561.16992188 50 562 C49.50144438 562.38839837 49.00288876 562.77679674 48.48922539 563.17696476 C44.80909375 566.47804332 43.6392603 569.45310602 43.308182 574.39249694 C43.18453818 578.21650174 43.19677529 582.03370644 43.22705078 585.85913086 C43.21887508 587.58429342 43.20806984 589.30944522 43.19483948 591.03457642 C43.16644016 595.70572411 43.17474322 600.37616572 43.18970728 605.04734874 C43.19909469 609.93346028 43.1746298 614.81940038 43.15377808 619.70545959 C43.11944801 628.95240098 43.11549889 638.19909503 43.12250316 647.44608742 C43.12899692 657.97574964 43.10156366 668.50523831 43.07130075 679.03484905 C43.00982128 700.68997086 42.99536043 722.34478445 43 744 C28.81 744 14.62 744 0 744 C0 498.48 0 252.96 0 0 Z " fill="#000000" transform="translate(1027,272)"/>
<path d="M0 0 C0.71510742 0.20963379 1.43021484 0.41926758 2.16699219 0.63525391 C28.9006318 8.56741422 53.74842208 21.27230608 76 38 C76.78503906 38.5878125 77.57007813 39.175625 78.37890625 39.78125 C79.18134766 40.38453125 79.18134766 40.38453125 80 41 C79.87535163 45.11339633 78.3239356 46.92708852 75.5 49.6875 C74.8709375 50.26886719 74.241875 50.85023438 73.59375 51.44921875 C71.89864768 52.9284043 71.89864768 52.9284043 71 55 C70.34 55 69.68 55 69 55 C69 55.66 69 56.32 69 57 C68.34 57 67.68 57 67 57 C66.75378906 57.57492187 66.50757813 58.14984375 66.25390625 58.7421875 C64.80206947 61.35639827 63.09712451 63.06336208 60.9375 65.125 C58.08428067 67.77905 58.08428067 67.77905 56 71 C51.86434025 70.43059757 49.09656577 68.01243325 45.875 65.5625 C20.65498437 47.0838728 -10.16041591 36.09668086 -41.07592773 32.25 C-42.809354 32.02477116 -44.53461428 31.73871076 -46.2578125 31.4453125 C-88.33738759 26.43793091 -130.25886483 41.90075816 -163.265625 67.48828125 C-165.89023654 69.61069757 -168.45400075 71.78426994 -171 74 C-171.77472656 74.64195312 -172.54945313 75.28390625 -173.34765625 75.9453125 C-204.96848516 102.73894798 -220.71460651 148.68643936 -224.8190918 188.69970703 C-228.53576096 235.95808332 -210.00046077 283.87349095 -180 320 C-155.80790041 347.94993906 -118.05178831 364.7554367 -82 370 C-81.33758301 370.10683105 -80.67516602 370.21366211 -79.99267578 370.32373047 C-35.66443076 377.42511321 11.68893473 360.17556085 47.375 334.4375 C48.08293701 333.91244873 48.79087402 333.38739746 49.52026367 332.84643555 C50.18131104 332.35957275 50.8423584 331.87270996 51.5234375 331.37109375 C52.10013184 330.93724365 52.67682617 330.50339355 53.27099609 330.05639648 C56.62440948 328.0075092 56.62440948 328.0075092 59 328 C61.2416473 329.76869748 63.10849545 331.47970773 65.078125 333.51953125 C65.64956238 334.09330002 66.22099976 334.66706879 66.80975342 335.25822449 C68.01579623 336.47401541 69.21579593 337.69582626 70.41015625 338.9230957 C72.24446708 340.80681804 74.09678887 342.67120744 75.953125 344.53320312 C77.12089423 345.71505742 78.28759819 346.89796545 79.453125 348.08203125 C80.00929504 348.643564 80.56546509 349.20509674 81.13848877 349.78364563 C85 353.76677232 85 353.76677232 85 356 C83.01819509 357.75889003 81.0347781 359.38796471 78.9375 361 C78.29901123 361.49201904 77.66052246 361.98403809 77.00268555 362.4909668 C75.01216906 364.00839761 73.00963382 365.50799913 71 367 C70.43893555 367.41846191 69.87787109 367.83692383 69.29980469 368.26806641 C39.85745181 389.87509753 1.66111663 404.80792006 -34.69140625 408.7109375 C-37.02295841 408.87288598 -37.02295841 408.87288598 -39 410 C-40.48898318 410.09977335 -41.98230335 410.13831062 -43.47460938 410.14526367 C-44.86746155 410.15483345 -44.86746155 410.15483345 -46.28845215 410.16459656 C-47.80082458 410.16626579 -47.80082458 410.16626579 -49.34375 410.16796875 C-50.90204529 410.17296135 -50.90204529 410.17296135 -52.49182129 410.17805481 C-54.69766802 410.18312708 -56.90352245 410.18546304 -59.109375 410.18530273 C-62.4584657 410.18747308 -65.80721834 410.20558079 -69.15625 410.22460938 C-71.30208221 410.22754659 -73.44791598 410.22952919 -75.59375 410.23046875 C-76.58580444 410.23765427 -77.57785889 410.24483978 -78.59997559 410.25224304 C-84.96566696 410.2317092 -90.81228205 409.47218784 -97 408 C-97.8245166 407.81213425 -98.6490332 407.62426849 -99.49853516 407.43070984 C-152.09853908 395.37569877 -201.9877051 367.04363381 -231.53198242 320.78637695 C-249.37732553 291.94482506 -259.18686938 261.28137388 -265 228 C-265.13277344 227.26942383 -265.26554688 226.53884766 -265.40234375 225.78613281 C-274.15237098 176.30915298 -257.90364007 120.68612144 -229.74609375 79.8515625 C-228.83431624 78.56515836 -227.91888378 77.28133776 -227 76 C-226.5167627 75.31905273 -226.03352539 74.63810547 -225.53564453 73.93652344 C-192.6649136 27.91963946 -142.89202191 2.89412024 -87.88012695 -6.55126953 C-58.59738931 -10.95607042 -28.26267641 -8.50820493 0 0 Z " fill="#000000" transform="translate(892,608)"/>
</svg>
